<?xml version="1.0" encoding="utf-8"?>
<svg xmlns="http://www.w3.org/2000/svg" width="575" height="326" viewBox="0 224.208 299.022 101.792" fill="none">
  <path d="M434.285 145.063V142.177H435.454V141.58H432.493V142.177H433.762V145.063H434.285ZM440.031 145.063V141.58H439.136L438.091 144.067L437.046 141.58H436.25V145.063H436.897V142.45L437.867 144.714H438.539L439.509 142.45V145.087L440.031 145.063Z" fill="#F79E1B"/>
  <path d="M153.485 260.175C153.315 273.524 165.382 280.974 174.471 285.404C183.811 289.948 186.948 292.863 186.912 296.926C186.841 303.147 179.462 305.891 172.555 305.998C160.507 306.185 153.502 302.746 147.933 300.143L143.593 320.453C149.18 323.028 159.527 325.274 170.256 325.372C195.44 325.372 211.918 312.94 212.007 293.665C212.105 269.202 178.17 267.848 178.401 256.913C178.482 253.598 181.645 250.06 188.578 249.16C192.009 248.706 201.482 248.358 212.221 253.304L216.436 233.654C210.661 231.551 203.238 229.537 193.997 229.537C170.292 229.537 153.618 242.138 153.485 260.175ZM256.939 231.23C252.341 231.23 248.464 233.912 246.736 238.029L210.759 323.928H235.926L240.934 310.089H271.688L274.593 323.928H296.774L277.418 231.23H256.939ZM260.459 256.272L267.722 291.08H247.832L260.459 256.272ZM122.971 231.23L103.134 323.928H127.115L146.943 231.23H122.971ZM87.4941 231.23L62.5327 294.324L52.4359 240.676C51.2506 234.688 46.572 231.23 41.3766 231.23H0.570343L0 233.921C8.37691 235.739 17.8945 238.671 23.6603 241.808C27.1893 243.724 28.1963 245.399 29.3548 249.953L48.4791 323.928H73.8237L112.678 231.23H87.4941Z" fill="url(#paint0_linear)"/>
  <defs>
    <linearGradient id="paint0_linear" x1="136.44" y1="327.295" x2="139.213" y2="228.87" gradientUnits="userSpaceOnUse">
      <stop stop-color="#222357"/>
      <stop offset="1" stop-color="#254AA5"/>
    </linearGradient>
  </defs>
</svg>