<?xml version="1.0" encoding="utf-8"?>
<svg xmlns="http://www.w3.org/2000/svg" width="575" height="326" viewBox="336.656 222.628 238.344 103.372" fill="none" xmlns:bx="https://boxy-svg.com">
  <path d="M364.86 323.773C356.076 323.773 347.326 323.773 338.508 323.773C338.508 292.361 338.508 260.949 338.508 229.537C339.049 229.614 339.589 229.731 340.13 229.731C348.17 229.731 356.245 229.731 364.286 229.731C371.651 229.731 377.259 234.578 379.286 242.567C382.732 256.218 386.144 269.829 389.557 283.48C389.928 284.915 390.435 285.613 391.854 285.07C392.057 284.333 392.293 283.558 392.496 282.782C395.874 269.325 399.286 255.907 402.665 242.451C404.658 234.617 410.266 229.769 417.395 229.769C425.436 229.769 433.51 229.769 441.551 229.769C442.092 229.769 442.632 229.769 443.308 229.769C443.308 230.7 443.308 231.398 443.308 232.096C443.308 262.035 443.308 291.934 443.308 321.873C443.308 322.532 443.274 323.153 443.24 323.812C434.558 323.812 425.909 323.812 417.226 323.812C417.159 323.036 417.057 322.299 417.057 321.524C417.057 304.538 417.057 287.591 417.057 270.605C417.057 269.868 417.057 269.093 417.057 268.472C415.436 267.735 415.165 268.782 414.827 269.985C409.996 287.901 405.165 305.856 400.334 323.773C394.016 323.773 387.732 323.773 381.414 323.773C381.381 323.502 381.414 323.269 381.347 322.997C376.549 305.158 371.718 287.358 366.955 269.519C366.583 268.123 365.941 268.084 364.86 268.356C364.86 286.854 364.86 305.314 364.86 323.773Z" fill="#016848" id="object-0"/>
  <path d="M491.214 323.773C491.282 322.998 491.383 322.261 491.383 321.485C491.383 306.632 491.383 291.74 491.383 276.888C491.383 276.112 491.383 275.375 491.383 274.522C519.12 274.522 546.655 274.522 574.493 274.522C570.878 284.023 564.594 289.995 556.317 293.757C556.655 294.416 556.959 294.959 557.263 295.541C562.432 304.422 567.601 313.302 572.77 322.183C573.074 322.726 573.345 323.269 573.615 323.812C563.581 323.812 553.581 323.812 543.547 323.812C538.783 314.815 533.986 305.857 529.188 296.898C528.985 296.51 528.512 296.123 528.175 296.123C524.762 296.045 521.35 296.084 517.87 296.084C517.87 305.469 517.87 314.66 517.87 323.812C509.019 323.773 500.1 323.773 491.214 323.773Z" fill="#016848" id="object-1"/>
  <path d="M575 268.938C559.189 268.899 543.378 268.938 527.566 268.86C525.1 268.86 522.6 268.628 520.168 268.201C504.458 265.409 491.856 250.556 489.93 232.601C489.829 231.786 489.863 230.933 489.795 229.886C490.471 229.847 491.079 229.77 491.653 229.77C509.931 229.77 528.242 229.731 546.52 229.731C550.912 229.731 555.135 230.739 559.054 233.066C566.993 237.797 572.331 245.01 574.595 255.016C574.662 255.287 574.831 255.52 574.966 255.791C575 260.174 575 264.556 575 268.938Z" fill="#1181E8" id="object-2"/>
  <path d="M454.389 323.773C454.423 322.997 454.457 322.222 454.457 321.446C454.457 291.701 454.457 261.996 454.457 232.251C454.457 231.475 454.457 230.739 454.457 229.847C463.207 229.847 471.856 229.847 480.741 229.847C480.741 261.142 480.741 292.477 480.741 323.773C471.957 323.773 463.173 323.773 454.389 323.773Z" fill="#016848" id="object-3"/>
  <defs>
    <bx:export>
      <bx:file format="svg" href="#object-0"/>
      <bx:file format="svg" href="#object-1" path="Untitled 2.svg"/>
      <bx:file format="svg" href="#object-2" path="Untitled 3.svg"/>
      <bx:file format="svg" href="#object-3" path="Untitled 4.svg"/>
    </bx:export>
  </defs>
</svg>