<svg width="129" height="44" viewBox="0 0 129 44" fill="none" xmlns="http://www.w3.org/2000/svg">
<g>
<path d="M118.727 0H10.279c-.396 0-.786 0-1.18.002-.33.003-.658.009-.991.014-.724.009-1.446.074-2.16.195a7.086 7.086 0 0 0-2.05.69 6.948 6.948 0 0 0-1.745 1.296A6.88 6.88 0 0 0 .883 3.98 7.365 7.365 0 0 0 .21 6.074C.09 6.802.025 7.538.016 8.276c-.01.337-.01.676-.016 1.013v25.425c.005.342.006.673.016 1.015.009.738.073 1.474.194 2.202a7.35 7.35 0 0 0 .673 2.094 6.824 6.824 0 0 0 1.27 1.776c.51.525 1.1.963 1.745 1.297a7.127 7.127 0 0 0 2.05.694c.714.12 1.436.184 2.16.194.333.008.66.012.99.012.395.002.785.002 1.18.002h108.449c.388 0 .782 0 1.169-.002.328 0 .665-.005.994-.012.722-.01 1.443-.074 2.155-.194a7.235 7.235 0 0 0 2.058-.694 6.773 6.773 0 0 0 1.743-1.297c.513-.52.943-1.12 1.273-1.776.327-.66.552-1.365.668-2.094.12-.728.188-1.464.2-2.202.004-.342.004-.673.004-1.014.009-.4.009-.798.009-1.204V10.49c0-.403 0-.803-.009-1.201 0-.337 0-.676-.004-1.013a15.046 15.046 0 0 0-.2-2.202 7.356 7.356 0 0 0-.668-2.094A7.036 7.036 0 0 0 125.103.9a7.192 7.192 0 0 0-2.058-.69 13.773 13.773 0 0 0-2.155-.194c-.329-.005-.666-.012-.994-.014C119.509 0 119.115 0 118.727 0Z" fill="#fff"/>
<path d="M9.155 42.998c-.328 0-.648-.005-.974-.012a13.397 13.397 0 0 1-2.013-.179 6.254 6.254 0 0 1-1.784-.602 5.828 5.828 0 0 1-1.505-1.116 5.837 5.837 0 0 1-1.1-1.533 6.367 6.367 0 0 1-.584-1.82c-.11-.68-.17-1.368-.18-2.058C1.01 35.446 1 34.675 1 34.675V9.311s.01-.76.016-.982a13.84 13.84 0 0 1 .178-2.056c.103-.635.3-1.25.585-1.825.281-.568.65-1.086 1.094-1.535a6 6 0 0 1 1.51-1.122 6.188 6.188 0 0 1 1.78-.597 13.304 13.304 0 0 1 2.02-.18L9.157 1H119.84l.983.014c.67.008 1.339.068 2.001.178a6.319 6.319 0 0 1 1.8.602 6.085 6.085 0 0 1 2.601 2.657c.28.57.474 1.18.576 1.81.112.686.175 1.378.187 2.073.003.31.003.645.003.977.009.412.009.804.009 1.199v22.979c0 .399 0 .788-.009 1.18 0 .358 0 .685-.004 1.021a14.159 14.159 0 0 1-.184 2.035 6.4 6.4 0 0 1-.581 1.834 5.99 5.99 0 0 1-1.095 1.522 5.818 5.818 0 0 1-1.506 1.122 6.252 6.252 0 0 1-1.797.604c-.666.11-1.338.17-2.013.179-.315.008-.646.012-.967.012l-1.167.002-109.522-.002Z" fill="#202124"/>
<path d="m43.061 29.548-.028-.171a13.886 13.886 0 0 0-1.413-4.194 14.17 14.17 0 0 0-5.1-5.462c.006-.008.01-.018.016-.027l.857-1.465a6699.801 6699.801 0 0 1 1.437-2.46 1.278 1.278 0 0 0-.009-1.31 1.283 1.283 0 0 0-.45-.445 1.317 1.317 0 0 0-.999-.138 1.299 1.299 0 0 0-.79.599l-.6 1.028-.838 1.431-.856 1.466-.094.16-.13-.05a14.287 14.287 0 0 0-5.063-.92h-.146a14.299 14.299 0 0 0-5.02.96c-.03-.05-.06-.1-.088-.15l-.856-1.465-.837-1.431-.601-1.028a1.299 1.299 0 0 0-1.236-.637 1.301 1.301 0 0 0-1.144.952 1.283 1.283 0 0 0 .131.979l.601 1.028.837 1.431.857 1.466.007.012a14.276 14.276 0 0 0-4.093 3.808 13.966 13.966 0 0 0-1.672 3.069 13.944 13.944 0 0 0-.773 2.794l-.027.171c-.032.205-.059.41-.082.618H43.14c-.022-.208-.05-.413-.08-.618l.001-.001Z" fill="#fff"/>
<path d="M36.246 26.24c.543-.373.623-1.236.176-1.927-.445-.691-1.247-.95-1.79-.576-.544.373-.623 1.235-.177 1.927.446.69 1.248.949 1.791.576ZM23.678 25.664c.473-.692.389-1.554-.187-1.927-.575-.373-1.424-.115-1.896.576-.472.692-.388 1.554.187 1.927s1.424.115 1.896-.576Z" fill="#202124"/>
<path d="M55.392 19.497c1.312 0 2.402.679 2.92 1.41v-1.23h2.001v9.132h-1.44a.568.568 0 0 1-.57-.573v-.657C57.793 28.32 56.703 29 55.391 29 52.894 29 51 26.858 51 24.248c0-2.609 1.894-4.751 4.392-4.751Zm.36 1.824c-1.62 0-2.72 1.284-2.72 2.927 0 1.644 1.09 2.928 2.72 2.928 1.619 0 2.72-1.284 2.72-2.927 0-1.644-1.09-2.928-2.72-2.928Zm6.836-1.644H64.6v1.241c.55-.912 1.587-1.421 2.773-1.421 2.116 0 3.481 1.495 3.481 3.818v5.494h-1.439a.568.568 0 0 1-.571-.573v-4.592c0-1.442-.73-2.323-1.895-2.323-1.333 0-2.349 1.04-2.349 2.991v4.497h-1.44a.568.568 0 0 1-.57-.573v-8.559Zm14.245-.18c1.312 0 2.402.679 2.92 1.41v-5.79h2V28.82h-1.438a.567.567 0 0 1-.572-.573v-.658c-.508.732-1.608 1.411-2.92 1.411-2.498 0-4.393-2.142-4.393-4.752.011-2.609 1.905-4.751 4.403-4.751Zm.36 1.824c-1.62 0-2.72 1.284-2.72 2.927 0 1.644 1.09 2.928 2.72 2.928 1.619 0 2.72-1.284 2.72-2.927 0-1.644-1.101-2.928-2.72-2.928Zm6.836-1.644h2V21.3a2.573 2.573 0 0 1 2.403-1.718c.263 0 .525.024.783.074v2.068a3.23 3.23 0 0 0-1.005-.17c-1.154 0-2.191.966-2.191 2.8v4.455h-1.44a.568.568 0 0 1-.57-.573v-8.559h.02ZM94.633 29c-2.698 0-4.773-2.1-4.773-4.752 0-2.651 2.075-4.751 4.773-4.751 2.699 0 4.773 2.1 4.773 4.752 0 2.651-2.074 4.751-4.773 4.751Zm0-1.867c1.609 0 2.73-1.262 2.73-2.884 0-1.623-1.132-2.885-2.73-2.885-1.619 0-2.751 1.262-2.751 2.884 0 1.623 1.132 2.885 2.751 2.885Zm7.398-9.45a1.35 1.35 0 0 1-1.344-1.347A1.36 1.36 0 0 1 102.031 15a1.336 1.336 0 0 1 1.338 1.342 1.343 1.343 0 0 1-1.338 1.341Zm-.995 1.994h2v9.132h-1.429a.57.57 0 0 1-.571-.573v-8.559Zm8.043-.18c1.312 0 2.402.679 2.921 1.41v-5.79h2V28.82h-1.439a.566.566 0 0 1-.529-.354.589.589 0 0 1-.043-.219v-.658c-.508.732-1.608 1.411-2.921 1.411-2.497 0-4.392-2.142-4.392-4.752.011-2.609 1.905-4.751 4.403-4.751Zm.37 1.824c-1.619 0-2.719 1.284-2.719 2.927 0 1.644 1.09 2.928 2.719 2.928 1.62 0 2.72-1.284 2.72-2.927 0-1.644-1.1-2.928-2.72-2.928Z" fill="#fff"/>
</g>
</svg>