<?xml version="1.0" encoding="UTF-8"?>
<svg width="123" height="44" viewBox="0 0 123 44" fill="none" xmlns="http://www.w3.org/2000/svg">
  <g>
    <!-- Background shape -->
    <path d="M113.205 0H9.8c-.376 0-.749 0-1.125.002-.314.003-.627.009-.944.014-.69.009-1.38.074-2.06.195A6.543 6.543 0 0 0 3.717.9a6.657 6.657 0 0 0-1.664 1.296c-.49.52-.9 1.123-1.21 1.783A7.623 7.623 0 0 0 .2 6.074a15.269 15.269 0 0 0-.184 2.202c-.01.337-.011.676-.016 1.013v25.425c.005.342.006.673.016 1.015.008.738.07 1.474.184 2.202.113.729.33 1.435.642 2.094.312.658.72 1.258 1.211 1.776a6.49 6.49 0 0 0 1.664 1.297 6.583 6.583 0 0 0 1.954.694c.681.12 1.37.184 2.06.194.317.008.63.012.944.012C9.051 44 9.424 44 9.8 44h103.405c.37 0 .745 0 1.114-.002.313 0 .635-.005.948-.012.688-.01 1.376-.074 2.055-.194a6.679 6.679 0 0 0 1.962-.694 6.485 6.485 0 0 0 1.662-1.297c.489-.52.899-1.12 1.214-1.776.312-.66.526-1.365.637-2.094a15.91 15.91 0 0 0 .191-2.202c.004-.342.004-.673.004-1.014.008-.4.008-.798.008-1.204V10.49c0-.403 0-.803-.008-1.201 0-.337 0-.676-.004-1.013a15.91 15.91 0 0 0-.191-2.202 7.624 7.624 0 0 0-.637-2.094A6.89 6.89 0 0 0 119.284.9a6.638 6.638 0 0 0-1.962-.69 12.547 12.547 0 0 0-2.055-.194c-.313-.005-.635-.012-.948-.014C113.95 0 113.575 0 113.205 0Z" fill="#202124"/>
    
    <!-- Inner shape -->
    <path d="M8.77 42.998c-.313 0-.618-.005-.928-.012a12.178 12.178 0 0 1-1.918-.179 5.768 5.768 0 0 1-1.7-.602A5.58 5.58 0 0 1 2.79 41.09a5.84 5.84 0 0 1-1.047-1.533 6.594 6.594 0 0 1-.557-1.82 14.56 14.56 0 0 1-.171-2.058C1.009 35.446 1 34.675 1 34.675V9.311s.01-.76.015-.982a14.51 14.51 0 0 1 .17-2.056c.098-.635.286-1.25.558-1.825a5.902 5.902 0 0 1 1.041-1.535 5.746 5.746 0 0 1 1.44-1.122 5.707 5.707 0 0 1 1.696-.597c.636-.112 1.28-.172 1.924-.18L8.77 1h105.455l.937.014c.639.008 1.276.068 1.907.178a5.814 5.814 0 0 1 1.714.602 5.96 5.96 0 0 1 2.478 2.657c.267.57.452 1.18.549 1.81.107.686.167 1.378.179 2.073.003.31.003.645.003.977.008.412.008.804.008 1.199v22.979c0 .399 0 .788-.008 1.18 0 .358 0 .685-.004 1.021a14.902 14.902 0 0 1-.176 2.035 6.639 6.639 0 0 1-.553 1.834 6.03 6.03 0 0 1-1.043 1.522 5.568 5.568 0 0 1-1.436 1.122 5.752 5.752 0 0 1-1.711.604c-.635.11-1.276.17-1.918.179-.301.008-.616.012-.921.012l-1.113.002L8.77 42.998Z" fill="#202124"/>
    
    <!-- Apple logo -->
    <path fill-rule="evenodd" clip-rule="evenodd" d="M48.734 8.43a5.422 5.422 0 0 1-1.246 3.892 4.582 4.582 0 0 1-3.618 1.706 5.156 5.156 0 0 1 1.278-3.748 5.547 5.547 0 0 1 3.586-1.85Zm2.53 10.26a5.505 5.505 0 0 0-.72 2.652 5.321 5.321 0 0 0 .892 2.942 5.343 5.343 0 0 0 2.372 1.963 12.208 12.208 0 0 1-1.697 3.447c-1 1.492-2.049 2.95-3.713 2.976-.792.018-1.326-.208-1.882-.445-.581-.247-1.186-.504-2.133-.504-1.004 0-1.636.266-2.246.522-.527.22-1.037.435-1.756.465-1.585.058-2.796-1.593-3.832-3.07-2.072-3.018-3.684-8.505-1.522-12.238a5.954 5.954 0 0 1 5.001-3.041c.899-.019 1.761.327 2.517.63.579.231 1.095.438 1.517.438.372 0 .873-.198 1.458-.43.921-.364 2.048-.81 3.197-.69a5.677 5.677 0 0 1 4.462 2.405 5.526 5.526 0 0 0-1.914 1.977Z" fill="#fff"/>
    
    <!-- Text -->
    <path d="M61.498 29.9h2.368V19.832h-2.368V29.9Zm1.18-11.388c.741 0 1.321-.57 1.321-1.282 0-.722-.58-1.292-1.322-1.292-.732 0-1.312.57-1.312 1.292 0 .712.58 1.282 1.313 1.282Zm9.072-2.546c-4.004 0-6.514 2.726-6.514 7.086s2.51 7.076 6.514 7.076c3.994 0 6.504-2.716 6.504-7.076 0-4.36-2.51-7.086-6.504-7.086Zm0 2.09c2.444 0 4.003 1.938 4.003 4.996 0 3.049-1.56 4.986-4.003 4.986-2.454 0-4.004-1.937-4.004-4.986 0-3.058 1.55-4.996 4.004-4.996Zm7.503 7.988c.105 2.526 2.178 4.084 5.335 4.084 3.319 0 5.41-1.634 5.41-4.236 0-2.042-1.178-3.191-3.965-3.828l-1.578-.36c-1.683-.4-2.378-.931-2.378-1.843 0-1.14 1.047-1.9 2.597-1.9 1.569 0 2.643.77 2.757 2.052h2.34c-.058-2.413-2.055-4.047-5.078-4.047-2.986 0-5.107 1.644-5.107 4.075 0 1.957 1.198 3.172 3.728 3.752l1.778.418c1.73.408 2.434.978 2.434 1.966 0 1.14-1.15 1.957-2.805 1.957-1.674 0-2.938-.827-3.09-2.09h-2.378Z" fill="#fff"/>
  </g>
</svg>