<svg width="40" height="40" viewBox="0 0 40 40" fill="none" xmlns="http://www.w3.org/2000/svg">
<rect width="40" height="40" fill="#FFE600"/>
<path d="M25.7195 18.0496V14.2296L27.0995 12.8496V16.1596L28.2995 17.3596L33.1295 12.5296L34.3195 13.7196C34.3095 12.8196 34.1295 10.2096 31.9195 8.03963C29.5395 5.73963 26.9595 6.77963 26.0795 7.65963L21.2595 12.4796L22.4895 13.7096L19.9995 16.2196L17.5095 13.7296L18.7395 12.4996L13.9195 7.67963C13.0395 6.79963 10.4595 5.75963 8.07948 8.05963C5.86948 10.2296 5.68948 12.8396 5.67948 13.7396L6.86948 12.5496L11.6995 17.3796L12.8995 16.1796V12.8696L14.2795 14.2496V18.0696L16.2195 19.9996L6.65948 29.5596L10.4395 33.3296L19.9995 23.7796L29.5595 33.3396L33.3395 29.5696L23.7795 19.9996L25.7195 18.0496Z" fill="#2B2D34"/>
</svg>
