<svg width="40" height="40" viewBox="0 0 40 40" fill="none" xmlns="http://www.w3.org/2000/svg">
<rect x="0.05504" width="40" height="40" fill="#00274F"/>
<path d="M27.8887 6L12.8055 7.99065V12.4999L27.8887 11.1401V6Z" fill="#E4003A"/>
<path d="M22.1223 15.0833C19.6632 15.0833 17.6646 16.5979 17.169 17.225V15.4074H12.8055V33.9997H17.1417V27.3868C17.6507 28.0275 19.6356 29.5149 22.1085 29.5149C26.2121 29.5149 28.472 27.2914 28.472 22.2885C28.472 17.2856 26.2151 15.0833 22.1223 15.0833ZM20.5689 25.913C17.9852 25.913 17.1721 24.9755 17.1721 22.2779C17.1721 19.5803 17.9792 18.6427 20.5689 18.6427C23.1586 18.6427 23.9505 19.5666 23.9505 22.2779C23.9505 24.9891 23.1708 25.907 20.5689 25.907V25.913Z" fill="white"/>
</svg>
