<svg width="41" height="40" viewBox="0 0 41 40" fill="none" xmlns="http://www.w3.org/2000/svg">
<rect x="0.201729" width="40" height="40" fill="#42AB44"/>
<path fill-rule="evenodd" clip-rule="evenodd" d="M16.4875 20.4061L19.1569 17.7911V16.0096L16.4875 18.6185V20.4061ZM16.4875 13.775L19.1569 11.148V9.47509L16.4875 12.078V13.769V13.775ZM16.4875 15.9673L19.1569 13.3523V11.6734L16.4875 14.2823V15.9673ZM15.7266 9.49321L15.3642 9.15501V5H14.9656V8.75642L14.6154 8.41218V5H14.2107V8.01963L13.8544 7.66935V5H13.4558V8.96175L16.1373 11.5767V5H15.7326V9.49321H15.7266ZM16.4875 18.1595L19.1569 15.5445V13.8656L16.4875 16.4746V18.1595ZM13.4498 17.7911L16.1312 20.4061V18.6185L13.4498 16.0096V17.7911ZM18.7583 7.66935L18.402 8.01963V5H18.0034V8.41822L17.641 8.75642V5H17.2424V9.14897L16.8922 9.49321V5H16.4875V11.5828L19.1569 8.96175V5H18.7583V7.66935ZM13.4498 11.148L16.1312 13.775V12.084L13.4498 9.46905V11.1419V11.148ZM13.4498 13.3523L16.1312 15.9673V14.2763L13.4498 11.6794V13.3523ZM13.4498 15.5445L16.1312 18.1595V16.4746L13.4498 13.8717V15.5445ZM29.3753 16.9275H22.8771C23.0189 16.708 23.0944 16.4521 23.0945 16.1907C23.0912 15.4276 22.4505 14.7924 21.6873 14.7957C20.9288 14.7989 20.2955 15.4322 20.2923 16.1907C20.2923 16.4927 20.3889 16.7705 20.552 17C20.4304 17.0809 20.3539 17.2224 20.3527 17.3684C20.3527 17.5254 20.4372 17.6643 20.552 17.7428C20.3837 17.9792 20.293 18.262 20.2923 18.5521C20.2923 19.3119 20.9275 19.9472 21.6873 19.9472C22.4505 19.9505 23.0912 19.3153 23.0945 18.5521C23.0945 18.2803 23.016 18.0267 22.8771 17.8153H27.7145V18.1112H27.2314V18.5219H27.7145V18.9446H27.2314V19.7297H27.7145V19.3795H28.4211V19.7297H28.8982V18.9446H28.4211V18.5219H28.8982V18.1112H28.4211V17.8093H29.3753C29.5595 17.8093 29.7135 17.6553 29.7135 17.4711V17.2657C29.7103 17.0828 29.5582 16.9307 29.3753 16.9275ZM22.412 18.5581C22.412 18.9529 22.0821 19.2828 21.6873 19.2828C21.2926 19.2828 20.9626 18.9529 20.9626 18.5581C20.9626 18.2808 21.1512 18.0479 21.2887 17.8213C21.158 17.7097 21.0812 17.5403 21.0834 17.3684C21.0834 17.1872 21.1619 17.0302 21.2827 16.9215C21.1526 16.6939 20.9643 16.4582 20.9687 16.1847C20.9687 15.79 21.2986 15.46 21.6934 15.46C22.0881 15.46 22.4181 15.79 22.4181 16.1847C22.4181 16.4806 22.0799 17.1812 22.0799 17.1812V17.5556C22.0738 17.5616 22.412 18.2622 22.412 18.5581ZM11.022 16.076V17.8213C11.022 19.4821 11.7467 20.5571 12.1695 20.9678L14.9354 23.6855C15.7085 24.4404 15.8413 24.688 16.0165 25.1168V23.1842C16.0165 21.6114 15.2851 20.9222 14.8145 20.4787C13.9923 19.7039 13.1857 18.91 12.3869 18.1112C11.7826 17.5458 11.3157 16.8496 11.022 16.076ZM12.3869 22.4232C11.825 21.914 11.364 21.3034 11.0281 20.6236V22.1273C11.01 23.2861 11.4159 24.4115 12.1695 25.2919L14.9354 27.9914C15.6814 28.7199 15.8313 29.0829 15.9982 29.4873L16.0165 29.5314V27.4962C16.0165 25.9205 15.2826 25.2306 14.8156 24.7916L14.8154 24.7913L14.8146 24.7907C13.994 24.0189 13.184 23.2203 12.3869 22.4232ZM20.2022 8.22487C20.0108 8.22487 19.8194 8.22498 19.628 8.23695V9.04621C24.2379 8.69267 28.7006 11.3169 30.6326 15.5172C31.2657 16.8936 31.6123 18.3844 31.6513 19.8989C31.7294 22.9374 30.5335 25.9341 28.3849 28.084C26.2363 30.2339 23.2403 31.4315 20.2017 31.3552C17.2396 31.3584 14.3975 30.1852 12.3001 28.0935C10.2027 26.0018 9.02183 23.1628 9.01703 20.2007C9.01703 16.7765 10.557 13.7206 12.9909 11.6672V10.6285C11.5031 11.7416 10.2956 13.1865 9.46421 14.8482C8.63284 16.5099 8.20056 18.3426 8.20173 20.2007C8.20173 26.8137 13.5767 32.1765 20.2078 32.1765C23.3861 32.1782 26.435 30.9175 28.6841 28.6718C30.9333 26.426 32.1985 23.3791 32.2017 20.2007C32.2017 13.5879 26.8271 8.22514 20.2022 8.22487ZM29.2183 25.6723C29.0553 25.944 28.8741 26.2098 28.6929 26.4574V24.0658H29.2183V25.6723ZM30.2774 23.3191C30.2606 23.3742 30.2438 23.4298 30.2269 23.4861C29.937 23.1901 29.4176 23.1962 28.9526 23.2083H28.6929V22.7855H30.4322C30.3859 22.9615 30.3325 23.1376 30.2774 23.3191ZM18.1665 22.7191H18.6376V22.7251V27.4961H18.1665V22.7191ZM17.0794 21.8067H18.6375C19.0421 21.8067 19.326 21.8912 19.483 22.0482C19.6461 22.1992 19.7246 22.4831 19.7246 22.8817V27.3507C19.7246 27.7493 19.6521 28.0271 19.483 28.1841C19.2414 28.4317 18.7824 28.4317 18.408 28.4317L18.1664 28.4257V30.5394L18.6375 30.624V28.8847C19.3622 28.8847 19.8272 28.6431 20.0507 28.1479V30.7387H20.2077L20.5097 30.7327V22.9602C20.5097 22.5495 20.5882 22.2596 20.7512 22.0966C20.9022 21.9335 21.1861 21.855 21.5786 21.855C21.6342 21.855 21.6932 21.8539 21.7546 21.8527C22.1404 21.8452 22.6174 21.836 22.8831 22.0966C23.0401 22.2596 23.1126 22.5555 23.1126 22.9602V25.2551H22.0436V22.8032H21.5786V30.6481C21.7356 30.63 21.8806 30.6059 22.0436 30.5757V25.7141H23.1126V30.3281C23.33 30.2677 23.5474 30.2012 23.7648 30.1227V25.8953C23.7648 25.4121 23.8796 25.0498 24.3688 24.8867L23.8252 21.9456H24.9123L25.0935 25.1524H25.2263L25.4075 21.9456H26.5429L25.9329 24.8867C26.4402 25.0679 26.5429 25.3759 26.5429 25.8892V28.625C26.8597 28.3874 27.1622 28.1313 27.4488 27.858V21.9214H30.6194L30.6798 21.4866H23.2575L23.3602 22.0241C23.1307 21.5893 22.6838 21.3719 22.0316 21.3719H21.5665C20.7814 21.3719 20.2983 21.6859 20.1171 22.3079C19.9541 21.6557 19.4528 21.3296 18.6315 21.3296H16.6023V30.0986C16.7593 30.1529 16.9163 30.2073 17.0733 30.2496V21.8127L17.0794 21.8067ZM26.9173 25.1766L26.404 24.6934L26.9173 22.0543V25.1766ZM24.989 29.5907C24.9613 29.605 24.9337 29.6192 24.9063 29.6335V29.6274V25.7623H25.3894V29.3738C25.2638 29.4491 25.1257 29.5203 24.989 29.5907Z" fill="white"/>
</svg>
