<svg width="40" height="40" viewBox="0 0 40 40" fill="none" xmlns="http://www.w3.org/2000/svg">
<rect width="40" height="40" fill="#003791"/>
<path d="M22.7898 6.29736V13.5568H19.9756C16.4199 13.5568 13.5558 16.4208 13.5558 19.9763C13.5558 23.5307 16.4199 26.3947 19.9745 26.3947H22.7898V33.6541C29.2084 32.4195 33.9999 26.7905 33.9999 19.9752C33.9999 13.2105 29.2106 7.58149 22.7898 6.29736Z" fill="white"/>
<path d="M19.9756 28.6656C15.1852 28.6656 11.2825 24.7649 11.2825 19.9758C11.2825 15.1868 15.184 11.285 19.9733 11.285H20.5176V6H19.9745C12.2723 6 6 12.2722 6 19.9747C6 27.7278 12.2723 34 19.9756 34H20.5187V28.6679H19.9756V28.6656Z" fill="#FF4B5F"/>
</svg>
