<?xml version="1.0" encoding="utf-8"?>
<svg xmlns="http://www.w3.org/2000/svg" width="575" height="326" viewBox="151.191 0 293.395 180.259" fill="none">
  <path d="M337.11 19.1548H258.744V159.991H337.11V19.1548Z" fill="#FF5F00"/>
  <path d="M263.719 89.5835C263.705 76.0181 266.777 62.6272 272.704 50.4248C278.63 38.2225 287.256 27.5287 297.927 19.1531C284.714 8.7695 268.847 2.31253 252.138 0.520203C235.43 -1.27212 218.554 1.6725 203.44 9.01755C188.325 16.3626 175.582 27.8117 166.667 42.0564C157.752 56.301 153.024 72.7666 153.024 89.5711C153.024 106.376 157.752 122.841 166.667 137.086C175.582 151.33 188.325 162.78 203.44 170.125C218.554 177.47 235.43 180.414 252.138 178.622C268.847 176.83 284.714 170.373 297.927 159.989C287.259 151.616 278.636 140.926 272.709 128.728C266.783 116.531 263.709 103.145 263.719 89.5835V89.5835Z" fill="#EB001B"/>
  <path d="M442.843 89.5846C442.842 106.39 438.113 122.857 429.197 137.102C420.28 151.347 407.535 162.796 392.419 170.14C377.303 177.484 360.425 180.427 343.716 178.632C327.006 176.837 311.138 170.377 297.927 159.99C308.59 151.61 317.211 140.917 323.139 128.718C329.067 116.52 332.148 103.135 332.148 89.5721C332.148 76.0096 329.067 62.6242 323.139 50.4258C317.211 38.2274 308.59 27.5346 297.927 19.1542C311.138 8.76734 327.006 2.30722 343.716 0.512322C360.425 -1.28258 377.303 1.66015 392.419 9.00415C407.535 16.3482 420.28 27.7971 429.197 42.0422C438.113 56.2874 442.842 72.754 442.843 89.5597V89.5846Z" fill="#F79E1B"/>
</svg>