<svg width="40" height="40" viewBox="0 0 40 40" fill="none" xmlns="http://www.w3.org/2000/svg">
<rect x="-0.000511169" width="40" height="40" fill="#21A038"/>
<path fill-rule="evenodd" clip-rule="evenodd" d="M19.8 6.00001H19.7974C16.2362 5.99561 12.759 7.42624 10.2145 9.91373C6.15864 13.8617 4.88359 20.1118 7.03025 25.3609C8.37018 28.6376 10.959 31.3491 14.1915 32.8031C17.6254 34.3476 21.6107 34.4009 25.0836 32.9422C28.3545 31.5684 31.0066 28.9318 32.4292 25.6825C33.5501 23.1226 33.8817 20.2418 33.3964 17.492L30.4226 19.7131C30.4226 21.3203 30.1579 22.8892 29.5092 24.3685C28.4139 26.8657 26.3764 28.8942 23.8623 29.9517C21.1897 31.0758 18.1322 31.0349 15.4878 29.8439C13.0006 28.7237 11.0141 26.6431 9.98102 24.1204C8.87371 21.4164 8.9127 18.3084 10.0858 15.6334C11.1804 13.1379 13.2169 11.1106 15.7317 10.0526C19.0245 8.66734 22.8396 9.06398 25.7866 11.113L28.473 9.10629C26.0441 7.11299 22.9409 5.996 19.8 6.00001ZM30.7302 11.4419C31.3866 12.3019 31.9422 13.2362 32.3859 14.226L19.8002 23.6284L14.5404 20.2869V16.2668L19.8002 19.6084L30.7302 11.4419Z" fill="white"/>
</svg>
